<mxfile host="Electron" modified="2024-07-17T14:22:37.999Z" agent="Mozilla/5.0 (Windows NT 10.0; Win64; x64) AppleWebKit/537.36 (KHTML, like Gecko) draw.io/24.5.3 Chrome/124.0.6367.207 Electron/30.0.6 Safari/537.36" etag="Lr6tYM3AdcpFz3z0l6FO" version="24.5.3" type="device">
  <diagram name="Page-1" id="X7hjGmZdpJKSLKkqAEZF">
    <mxGraphModel dx="802" dy="461" grid="1" gridSize="10" guides="1" tooltips="1" connect="1" arrows="1" fold="1" page="1" pageScale="1" pageWidth="827" pageHeight="1169" math="0" shadow="0">
      <root>
        <mxCell id="0" />
        <mxCell id="1" parent="0" />
        <mxCell id="16GQO6CsjFOEJ0Fk5km2-1" value="Actor" style="shape=umlActor;verticalLabelPosition=bottom;verticalAlign=top;html=1;outlineConnect=0;" parent="1" vertex="1">
          <mxGeometry x="120" y="345" width="30" height="60" as="geometry" />
        </mxCell>
        <mxCell id="16GQO6CsjFOEJ0Fk5km2-10" value="" style="group" parent="1" vertex="1" connectable="0">
          <mxGeometry x="440" y="280" width="120" height="190" as="geometry" />
        </mxCell>
        <mxCell id="16GQO6CsjFOEJ0Fk5km2-8" value="" style="rounded=0;whiteSpace=wrap;html=1;" parent="16GQO6CsjFOEJ0Fk5km2-10" vertex="1">
          <mxGeometry width="120" height="190" as="geometry" />
        </mxCell>
        <mxCell id="16GQO6CsjFOEJ0Fk5km2-7" value="Prediction Results" style="rounded=0;whiteSpace=wrap;html=1;" parent="16GQO6CsjFOEJ0Fk5km2-10" vertex="1">
          <mxGeometry x="10" y="50" width="100" height="60" as="geometry" />
        </mxCell>
        <mxCell id="16GQO6CsjFOEJ0Fk5km2-9" value="Python Scripts" style="text;html=1;align=center;verticalAlign=middle;whiteSpace=wrap;rounded=0;" parent="16GQO6CsjFOEJ0Fk5km2-10" vertex="1">
          <mxGeometry x="20" y="10" width="80" height="30" as="geometry" />
        </mxCell>
        <mxCell id="16GQO6CsjFOEJ0Fk5km2-6" value="Training Module" style="rounded=0;whiteSpace=wrap;html=1;" parent="16GQO6CsjFOEJ0Fk5km2-10" vertex="1">
          <mxGeometry x="10" y="120" width="100" height="60" as="geometry" />
        </mxCell>
        <mxCell id="16GQO6CsjFOEJ0Fk5km2-11" value="" style="group" parent="1" vertex="1" connectable="0">
          <mxGeometry x="240" y="280" width="120" height="190" as="geometry" />
        </mxCell>
        <mxCell id="16GQO6CsjFOEJ0Fk5km2-2" value="" style="rounded=0;whiteSpace=wrap;html=1;" parent="16GQO6CsjFOEJ0Fk5km2-11" vertex="1">
          <mxGeometry width="120" height="190" as="geometry" />
        </mxCell>
        <mxCell id="16GQO6CsjFOEJ0Fk5km2-3" value="Training Controller" style="rounded=0;whiteSpace=wrap;html=1;" parent="16GQO6CsjFOEJ0Fk5km2-11" vertex="1">
          <mxGeometry x="10" y="120" width="100" height="60" as="geometry" />
        </mxCell>
        <mxCell id="16GQO6CsjFOEJ0Fk5km2-4" value="Prediction Controller" style="rounded=0;whiteSpace=wrap;html=1;" parent="16GQO6CsjFOEJ0Fk5km2-11" vertex="1">
          <mxGeometry x="10" y="50" width="100" height="60" as="geometry" />
        </mxCell>
        <mxCell id="16GQO6CsjFOEJ0Fk5km2-5" value="Controllers" style="text;html=1;align=center;verticalAlign=middle;whiteSpace=wrap;rounded=0;" parent="16GQO6CsjFOEJ0Fk5km2-11" vertex="1">
          <mxGeometry x="30" y="10" width="60" height="30" as="geometry" />
        </mxCell>
        <mxCell id="16GQO6CsjFOEJ0Fk5km2-12" value="" style="endArrow=classic;startArrow=classic;html=1;rounded=0;" parent="1" source="16GQO6CsjFOEJ0Fk5km2-8" target="16GQO6CsjFOEJ0Fk5km2-2" edge="1">
          <mxGeometry width="50" height="50" relative="1" as="geometry">
            <mxPoint x="430" y="400" as="sourcePoint" />
            <mxPoint x="480" y="350" as="targetPoint" />
          </mxGeometry>
        </mxCell>
        <mxCell id="16GQO6CsjFOEJ0Fk5km2-13" value="" style="endArrow=classic;startArrow=classic;html=1;rounded=0;" parent="1" source="16GQO6CsjFOEJ0Fk5km2-2" target="16GQO6CsjFOEJ0Fk5km2-1" edge="1">
          <mxGeometry width="50" height="50" relative="1" as="geometry">
            <mxPoint x="450" y="385" as="sourcePoint" />
            <mxPoint x="370" y="385" as="targetPoint" />
          </mxGeometry>
        </mxCell>
      </root>
    </mxGraphModel>
  </diagram>
</mxfile>
